# xmcd CD database file
#
# Track frame offsets:
#	182
#	8665
#	12087
#	17665
#	27382
#	36160
#	44642
#	49097
#	56457
#	62120
#	67007
#	70065
#	72875
#	77690
#	80527
#	87097
#	90155
#	92400
#	98405
#	99397
#	101947
#	105437
#	109522
#	112925
#	115242
#	116312
#	117507
#	120432
#	139287
#	144095
#	145165
#	149647
#	157432
#	161017
#	164495
#	169005
#	176970
#	181750
#	183820
#	185825
#	190337
#	193525
#	197522
#	205282
#	210227
#	220332
#	224817
#	228260
#	240200
#	253727
#	264775
#	277542
#
# Disc length: 3895 seconds
#
# Revision: 0
# Processed by: cddbd v1.5.2PL0 Copyright (c) Steve Scherf et al.
# Submitted via: CDex 1.70beta1
#
DISCID=d00f3534
DTITLE=Roscoe Beck - Blues Bass Basics
DYEAR=1996
DGENRE=Blues
TTITLE0=Introduction
TTITLE1=Tuning Methods
TTITLE2=Technique and Hand Positions
TTITLE3=The 12-Bar Blues Progression
TTITLE4=Shuffle Bass Lines
TTITLE5=Shuffle Bass Lines - 1 Roots and Triads
TTITLE6=Shuffle Bass Lines - 2 The 6th Degree
TTITLE7=Shuffle Bass Lines - 3 Muted Notes
TTITLE8=Shuffle Bass Lines - 4
TTITLE9=Shuffle Bass Lines - 5A Dropped Octave
TTITLE10=Shuffle Bass Lines - 5B
TTITLE11=Shuffle Bass Lines - 6 Chromatic Passing Tone
TTITLE12=Shuffle Bass Lines - 7 Triplets
TTITLE13=Shuffle Bass Lines - 8
TTITLE14=Shuffle Bass Lines - 9 Memphis Jimmy Reed
TTITLE15=Shuffle Bass Lines - 10A Open String Bass
TTITLE16=Shuffle Bass Lines - 10B
TTITLE17=Shuffle Bass Lines - 11 2/2 or Cut time
TTITLE18=Two Beat Blues Feel - 12 New Orleans Style
TTITLE19=Two Beat Blues Feel - 13
TTITLE20=Two Beat Blues Feel - 14
TTITLE21=The Slow Blues - 15 Using the 7th
TTITLE22=The Slow Blues
TTITLE23=The Slow Blues - 15 Using the 7th
TTITLE24=The Slow Blues - 16A Using a Simple Triad
TTITLE25=The Slow Blues - 16B Triplets (12/8 Feel)
TTITLE26=The Slow Blues - 17 Walking the Bass
TTITLE27=The Slow Blues - 18
TTITLE28=Minor Blues
TTITLE29=Minor Blues - 19A Minor 7th Arpeggios
TTITLE30=Minor Blues - 19B
TTITLE31=Minor Blues - 20 "Green Onions" Style
TTITLE32=Minor Blues - 21
TTITLE33=Minor Blues - 22 "Fever Style"
TTITLE34=Minor Blues - 23
TTITLE35=Minor Blues - 24 "The Thrill is Gone"
TTITLE36=Alternatives Styles
TTITLE37=Alternatives Styles - The Latin Surf
TTITLE38=Alternatives Styles - 26
TTITLE39=Alternatives Styles - 27
TTITLE40=Alternatives Styles - 28 The Latin/Rhumba Feel
TTITLE41=Alternatives Styles - 29
TTITLE42=Alternatives Styles - 30A Bo Diddly Style
TTITLE43=Alternatives Styles - 30B
TTITLE44=Alternatives Styles - 31 '60s R&B/Soul
TTITLE45=Alternatives Styles - 32
TTITLE46=Play Along
TTITLE47=Play Along - "A7 Funk Jam"
TTITLE48=Play Along - "Shuffle Jam"
TTITLE49=Play Along - "Big Boss Man"
TTITLE50=Play Along - "Help Me"
TTITLE51=Play Along - "Everyday I Have the Blues"
EXTD=YEAR: 1996
EXTT0=
EXTT1=
EXTT2=
EXTT3=
EXTT4=
EXTT5=
EXTT6=
EXTT7=
EXTT8=
EXTT9=
EXTT10=
EXTT11=
EXTT12=
EXTT13=
EXTT14=
EXTT15=
EXTT16=
EXTT17=
EXTT18=
EXTT19=
EXTT20=
EXTT21=
EXTT22=
EXTT23=
EXTT24=
EXTT25=
EXTT26=
EXTT27=
EXTT28=
EXTT29=
EXTT30=
EXTT31=
EXTT32=
EXTT33=
EXTT34=
EXTT35=
EXTT36=
EXTT37=
EXTT38=
EXTT39=
EXTT40=
EXTT41=
EXTT42=
EXTT43=
EXTT44=
EXTT45=
EXTT46=
EXTT47=
EXTT48=
EXTT49=
EXTT50=
EXTT51=
PLAYORDER=
